<svg xmlns="http://www.w3.org/2000/svg" width="30" height="30" viewBox="0 0 30 30">
  <defs>
    <style>
      .cls-1 {
        fill: #ffde02;
      }

      .cls-2 {
        fill: #141516;
        fill-rule: evenodd;
      }
    </style>
  </defs>
  <g id="Монтажная_область_1" data-name="Монтажная область 1">
    <circle id="Эллипс_1" data-name="Эллипс 1" class="cls-1" cx="15" cy="15" r="15"/>
    <path id="Forma_1" data-name="Forma 1" class="cls-2" d="M1432.43,1882.75c-0.9-.72-1.82-1.16-2.72-0.44l-0.53.44c-0.4.31-1.12,1.79-3.94-1.22s-1.14-3.49-.75-3.8l0.54-.44c0.89-.72.56-1.64-0.09-2.57l-0.38-.57c-0.65-.94-1.35-1.55-2.25-0.83l-0.48.39a4.2,4.2,0,0,0-1.77,2.8c-0.32,1.99.7,4.27,3.03,6.76s4.6,3.76,6.76,3.74a4.765,4.765,0,0,0,3.22-1.24l0.48-.4c0.89-.72.34-1.46-0.57-2.18Z" transform="translate(-1412 -1865)"/>
  </g>
</svg>
