<svg xmlns="http://www.w3.org/2000/svg" width="16" height="15" viewBox="0 0 16 15">
  <defs>
    <style>
      .cls-1 {
        fill: #ffde02;
        fill-rule: evenodd;
      }
    </style>
  </defs>
  <path id="Forma_1_копия_3" data-name="Forma 1 копия 3" class="cls-1" d="M798.886,2511.06l-2.127-1.97a0.31,0.31,0,0,0-.238-0.09,0.336,0.336,0,0,0-.224.12l-7.712,9.26-2.742-3.83a0.32,0.32,0,0,0-.216-0.13,0.307,0.307,0,0,0-.244.06l-2.258,1.8a0.367,0.367,0,0,0-.063.49l5.077,7.09a0.325,0.325,0,0,0,.25.14H788.4a0.305,0.305,0,0,0,.246-0.12l10.269-12.33A0.361,0.361,0,0,0,798.886,2511.06Z" transform="translate(-783 -2509)"/>
</svg>
