<svg xmlns="http://www.w3.org/2000/svg" width="21" height="16" viewBox="0 0 21 16">
  <defs>
    <style>
      .cls-1 {
        fill: rgba(255, 255, 255, 0.5);
        fill-rule: evenodd;
      }
    </style>
  </defs>
  <path id="Forma_1_копия_2" data-name="Forma 1 копия 2" class="cls-1" d="M6388.51,1977h-16.02a2.453,2.453,0,0,0-2.49,2.4v11.2a2.453,2.453,0,0,0,2.49,2.4h16.02a2.453,2.453,0,0,0,2.49-2.4v-11.2A2.453,2.453,0,0,0,6388.51,1977Zm0,13.88h-16.02a0.352,0.352,0,0,1-.38-0.28v-9.72l7.25,6.14a0.818,0.818,0,0,0,.53.19h1.22a0.838,0.838,0,0,0,.53-0.19l7.25-6.14v9.72A0.352,0.352,0,0,1,6388.51,1990.88Zm-8.01-5.77-7.05-5.99h14.09Z" transform="translate(-6370 -1977)"/>
</svg>
