<svg xmlns="http://www.w3.org/2000/svg" width="18" height="26" viewBox="0 0 18 26">
  <defs>
    <style>
      .cls-1 {
        fill: rgba(255, 255, 255, 0.5);
        fill-rule: evenodd;
      }
    </style>
  </defs>
  <path id="Forma_1" data-name="Forma 1" class="cls-1" d="M6380,1898a9.083,9.083,0,0,0-9,9.14,9.23,9.23,0,0,0,1.34,4.81l7.15,11.69a0.747,0.747,0,0,0,.63.36h0.01a0.751,0.751,0,0,0,.64-0.37l6.96-11.81a9.235,9.235,0,0,0,1.27-4.68A9.083,9.083,0,0,0,6380,1898Zm6.44,13.04-6.33,10.73-6.49-10.63a7.7,7.7,0,0,1-1.13-4,7.506,7.506,0,1,1,15.01,0A7.687,7.687,0,0,1,6386.44,1911.04Zm-6.44-8.47a4.571,4.571,0,1,0,4.5,4.57A4.541,4.541,0,0,0,6380,1902.57Zm0,7.63a3.061,3.061,0,1,1,3-3.06A3.043,3.043,0,0,1,6380,1910.2Z" transform="translate(-6371 -1898)"/>
</svg>
