<svg xmlns="http://www.w3.org/2000/svg" width="16.9" height="22.15" viewBox="0 0 16.9 22.15">
  <defs>
    <style>
      .cls-1 {
        fill: rgba(255, 255, 255, 0.5);
        fill-rule: evenodd;
      }
    </style>
  </defs>
  <path id="Forma_1_копия" data-name="Forma 1 копия" class="cls-1" d="M6387.05,1810.58l-2.7-2.44a2.235,2.235,0,0,0-2.48-.32l-0.45.24a1.248,1.248,0,0,1-1.39-.18,5.967,5.967,0,0,1-1.81-3.13,1.221,1.221,0,0,1,.54-1.29l0.43-.27a2.166,2.166,0,0,0,.94-1.28,2.239,2.239,0,0,0,.03-1.03l-0.78-3.56a3.129,3.129,0,0,0-2.24-2.36,3.187,3.187,0,0,0-2,.13l-1.15.47a4.609,4.609,0,0,0-2.84,4.48,21.071,21.071,0,0,0,9.07,16.18,4.46,4.46,0,0,0,1.42.65,4.583,4.583,0,0,0,3.51-.47l1.39-.81A3.112,3.112,0,0,0,6387.05,1810.58Zm-1.46,3.4-1.39.81a2.753,2.753,0,0,1-2.91-.11,19.163,19.163,0,0,1-8.26-14.73,2.7,2.7,0,0,1,1.68-2.65l1.15-.48a1.247,1.247,0,0,1,1.69.9l0.77,3.56a0.3,0.3,0,0,1-.14.33l-0.43.27a3.089,3.089,0,0,0-1.36,3.27,7.782,7.782,0,0,0,2.38,4.11,3.164,3.164,0,0,0,3.52.46l0.45-.24a0.332,0.332,0,0,1,.35.05l2.7,2.44a1.238,1.238,0,0,1,.38,1.25A1.3,1.3,0,0,1,6385.59,1813.98Z" transform="translate(-6371.16 -1794.88)"/>
</svg>
