<svg id="Группа_29" data-name="Группа 29" xmlns="http://www.w3.org/2000/svg" width="90" height="90" viewBox="0 0 90 90">
  <defs>
    <style>
      .cls-1 {
        fill: #ffea02;
      }

      .cls-2 {
        fill: #141516;
        fill-rule: evenodd;
      }
    </style>
  </defs>
  <rect id="Прямоугольник_712" data-name="Прямоугольник 712" class="cls-1" width="90" height="90"/>
  <path id="Forma_1" data-name="Forma 1" class="cls-2" d="M1423.89,3853.79l-5.56-.03-5.33-7.95a1.762,1.762,0,0,0-1.45-.81h-14.36a1.773,1.773,0,0,0-1.43.78l-5.5,7.98-5.16.03a7.127,7.127,0,0,0-7.1,7.1v22.95a7.179,7.179,0,0,0,7.1,7.16h38.79a7.181,7.181,0,0,0,7.11-7.16v-22.95A7.129,7.129,0,0,0,1423.89,3853.79Zm3.61,30.05a3.68,3.68,0,0,1-3.61,3.67H1385.1a3.68,3.68,0,0,1-3.61-3.67v-22.95a3.628,3.628,0,0,1,3.61-3.61h6.09a1.757,1.757,0,0,0,1.43-.79l5.5-7.97h12.49l5.3,7.91a1.815,1.815,0,0,0,1.43.79l6.53,0.06a3.628,3.628,0,0,1,3.61,3.61v22.95h0.02Zm-22.85-25.86a12.365,12.365,0,1,0,12.37,12.36A12.372,12.372,0,0,0,1404.65,3857.98Zm0,21.24a8.875,8.875,0,1,1,8.88-8.88A8.9,8.9,0,0,1,1404.65,3879.22Zm16.56-16.79a0.67,0.67,0,0,1,0,1.34A0.67,0.67,0,0,1,1421.21,3862.43Zm0-1.75a2.415,2.415,0,1,0,2.42,2.42A2.413,2.413,0,0,0,1421.21,3860.68Zm0,3.49a1.065,1.065,0,0,1-1.07-1.07,1.075,1.075,0,1,1,2.15,0A1.067,1.067,0,0,1,1421.21,3864.17Z" transform="translate(-1359 -3823)"/>
</svg>
