<svg id="Группа_29" data-name="Группа 29" xmlns="http://www.w3.org/2000/svg" width="90" height="90" viewBox="0 0 90 90">
  <defs>
    <style>
      .cls-1 {
        fill: #ffea02;
      }

      .cls-2 {
        fill: #141516;
        fill-rule: evenodd;
      }
    </style>
  </defs>
  <rect id="Прямоугольник_712" data-name="Прямоугольник 712" class="cls-1" width="90" height="90"/>
  <path id="Forma_1" data-name="Forma 1" class="cls-2" d="M532.007,3869.39V3848.7H501.643v38.6h13.968a1.85,1.85,0,0,1,0,3.7h-15.79a1.84,1.84,0,0,1-1.822-1.85v-42.3a1.841,1.841,0,0,1,1.822-1.85h34.008a1.84,1.84,0,0,1,1.822,1.85v22.54A1.822,1.822,0,1,1,532.007,3869.39Zm9.383,4.51a1.806,1.806,0,0,0-2.581.15l-9.99,11.3-5.01-4.91a1.8,1.8,0,0,0-2.581.06,1.883,1.883,0,0,0,.061,2.63l6.376,6.23a1.777,1.777,0,0,0,1.275.53H529a1.813,1.813,0,0,0,1.276-.62l11.235-12.72A1.879,1.879,0,0,0,541.39,3873.9Zm-16.063-18.1h-16.4a1.855,1.855,0,0,0,0,3.71h16.4A1.855,1.855,0,0,0,525.327,3855.8Zm1.822,12.05a1.849,1.849,0,0,0-1.822-1.86h-16.4a1.855,1.855,0,0,0,0,3.71h16.4A1.846,1.846,0,0,0,527.149,3867.85Zm-18.218,8.02a1.855,1.855,0,0,0,0,3.71h4.858a1.855,1.855,0,0,0,0-3.71h-4.858Z" transform="translate(-472 -3823)"/>
</svg>
