<svg xmlns="http://www.w3.org/2000/svg" width="80" height="80" viewBox="0 0 80 80">
  <defs>
    <style>
      .cls-1 {
        fill: #ffde02;
        fill-rule: evenodd;
      }
    </style>
  </defs>
  <path id="Фигура_1" data-name="Фигура 1" class="cls-1" d="M334.42,1913.29H310l17.074-31.71h7.345v31.71h0Zm30.185,5.7v-38.38h17.9v-5.05H359.541v43.43h5.064Zm-47.118-55.46v5.04h29.979v50.42h5.065v-50.42H382.51v-5.04H317.487Zm0,6.01v5.05h23.942v44.4h5.065v-49.45H317.487Zm0,6.02v5.05h17.9v38.38h5.065v-43.43h-22.97Zm65.023-6.02v5.05H358.567v44.4H353.5v-49.45H382.51ZM350,1839l12.685,23.56h-25.37L350,1839h0Zm22.923,42.58L390,1913.29H365.578v-31.71h7.344Z" transform="translate(-310 -1839)"/>
</svg>
