<svg viewBox="0 0 107 107" width="80" height="80" xmlns="http://www.w3.org/2000/svg" fill-rule="evenodd" clip-rule="evenodd" stroke-linejoin="round" stroke-miterlimit="1.414"><path d="M96.68 48.747v6.729H72.813v51.191h-6.76v-57.92H96.68zm-86.693 0h30.626v57.92h-6.76V55.471H9.987v-6.724-.006.006zm86.693-8.022v-.005 6.729H64.76v59.218H58V40.725h38.68zm-54.773 6.724H9.987v-6.724h38.666v65.942h-6.746V47.449zM9.987 32.703H96.68v6.729H56.707v67.235H49.96v-67.24H9.987v-6.724-.006.006z" fill="#141516"/><path d="M32.56 99.055H0l22.773-42.287h9.787v42.287zm74.107 0h-32.56V56.768h9.786v.005l22.774 42.282zM70.24 31.416H36.413L53.333 0 70.24 31.416z" fill="#ffde02"/></svg>